<svg width="28" height="28" viewBox="0 0 28 28" fill="none" xmlns="http://www.w3.org/2000/svg">
<g filter="url(#filter0_d_6_423)">
<path d="M19 5.96667C18.95 5.95834 18.8917 5.95834 18.8417 5.96667C17.6917 5.92501 16.775 4.98334 16.775 3.81667C16.775 2.62501 17.7334 1.66667 18.925 1.66667C20.1167 1.66667 21.075 2.63334 21.075 3.81667C21.0667 4.98334 20.15 5.92501 19 5.96667Z" stroke="#5F6F52" stroke-width="1.5" stroke-linecap="round" stroke-linejoin="round"/>
<path d="M18.1417 12.0334C19.2834 12.225 20.5417 12.025 21.425 11.4333C22.6 10.65 22.6 9.36668 21.425 8.58335C20.5334 7.99169 19.2584 7.79168 18.1167 7.99168" stroke="#5F6F52" stroke-width="1.5" stroke-linecap="round" stroke-linejoin="round"/>
<path d="M8.9749 5.96667C9.0249 5.95834 9.08324 5.95834 9.13324 5.96667C10.2832 5.92501 11.1999 4.98334 11.1999 3.81667C11.1999 2.62501 10.2416 1.66667 9.0499 1.66667C7.85824 1.66667 6.8999 2.63334 6.8999 3.81667C6.90824 4.98334 7.8249 5.92501 8.9749 5.96667Z" stroke="#5F6F52" stroke-width="1.5" stroke-linecap="round" stroke-linejoin="round"/>
<path d="M9.83328 12.0334C8.69162 12.225 7.43328 12.025 6.54995 11.4333C5.37495 10.65 5.37495 9.36668 6.54995 8.58335C7.44162 7.99169 8.71662 7.79168 9.85828 7.99168" stroke="#5F6F52" stroke-width="1.5" stroke-linecap="round" stroke-linejoin="round"/>
<path d="M14 12.1917C13.95 12.1833 13.8917 12.1833 13.8417 12.1917C12.6917 12.15 11.775 11.2083 11.775 10.0417C11.775 8.85 12.7334 7.89166 13.925 7.89166C15.1167 7.89166 16.075 8.85833 16.075 10.0417C16.0667 11.2083 15.15 12.1583 14 12.1917Z" stroke="#5F6F52" stroke-width="1.5" stroke-linecap="round" stroke-linejoin="round"/>
<path d="M11.575 14.8167C10.4 15.6 10.4 16.8833 11.575 17.6667C12.9083 18.5583 15.0916 18.5583 16.425 17.6667C17.6 16.8833 17.6 15.6 16.425 14.8167C15.1 13.9333 12.9083 13.9333 11.575 14.8167Z" stroke="#5F6F52" stroke-width="1.5" stroke-linecap="round" stroke-linejoin="round"/>
</g>
<defs>
<filter id="filter0_d_6_423" x="0" y="0" width="28" height="28" filterUnits="userSpaceOnUse" color-interpolation-filters="sRGB">
<feFlood flood-opacity="0" result="BackgroundImageFix"/>
<feColorMatrix in="SourceAlpha" type="matrix" values="0 0 0 0 0 0 0 0 0 0 0 0 0 0 0 0 0 0 127 0" result="hardAlpha"/>
<feOffset dy="4"/>
<feGaussianBlur stdDeviation="2"/>
<feComposite in2="hardAlpha" operator="out"/>
<feColorMatrix type="matrix" values="0 0 0 0 0 0 0 0 0 0 0 0 0 0 0 0 0 0 0.25 0"/>
<feBlend mode="normal" in2="BackgroundImageFix" result="effect1_dropShadow_6_423"/>
<feBlend mode="normal" in="SourceGraphic" in2="effect1_dropShadow_6_423" result="shape"/>
</filter>
</defs>
</svg>
