<svg width="20" height="20" viewBox="0 0 20 20" fill="none" xmlns="http://www.w3.org/2000/svg">
<g clip-path="url(#clip0_4_310)">
<path fill-rule="evenodd" clip-rule="evenodd" d="M10.8307 8.98236V8.95312C10.8247 8.96293 10.8165 8.97273 10.8113 8.98236H10.8307Z" fill="#101010"/>
<path fill-rule="evenodd" clip-rule="evenodd" d="M0 0L0 20L20 20L20 0L0 0ZM6.22075 16.6155H3.25345L3.25345 7.68818L6.22075 7.68818L6.22075 16.6155ZM4.7371 6.46971H4.71749C3.72211 6.46971 3.07692 5.78396 3.07692 4.92681C3.07692 4.05086 3.74097 3.38453 4.75653 3.38453C5.77231 3.38453 6.39653 4.05086 6.41596 4.92681C6.41596 5.78396 5.77231 6.46971 4.7371 6.46971ZM16.9231 16.6155H13.955L13.955 11.8393C13.955 10.6397 13.5262 9.82088 12.4519 9.82088C11.6315 9.82088 11.144 10.3722 10.9292 10.9063C10.8512 11.0971 10.8308 11.3622 10.8308 11.6298L10.8308 16.6155L7.86211 16.6155C7.86211 16.6155 7.90189 8.52571 7.86211 7.68822L10.8308 7.68822V8.95323C11.2252 8.34633 11.9291 7.47864 13.5058 7.47864C15.459 7.47864 16.9231 8.75424 16.9231 11.4961V16.6155Z" fill="#101010"/>
</g>
<defs>
<clipPath id="clip0_4_310">
<rect width="20" height="20" fill="white"/>
</clipPath>
</defs>
</svg>
